<?xml version="1.0" encoding="UTF-8" standalone="no"?>
<!-- Created with Inkscape (http://www.inkscape.org/) -->

<svg
   xmlns:dc="http://purl.org/dc/elements/1.1/"
   xmlns:cc="http://creativecommons.org/ns#"
   xmlns:rdf="http://www.w3.org/1999/02/22-rdf-syntax-ns#"
   xmlns:svg="http://www.w3.org/2000/svg"
   xmlns="http://www.w3.org/2000/svg"
   version="1.1"
   width="744.09448"
   height="1052.3622"
   id="svg5563">
  <defs
     id="defs5565" />
  <metadata
     id="metadata5568">
    <rdf:RDF>
      <cc:Work
         rdf:about="">
        <dc:format>image/svg+xml</dc:format>
        <dc:type
           rdf:resource="http://purl.org/dc/dcmitype/StillImage" />
        <dc:title></dc:title>
      </cc:Work>
    </rdf:RDF>
  </metadata>
  <g
     id="layer1">
    <g
       transform="matrix(0.38665785,0,0,0.38665785,269.11016,655.79931)"
       id="g4975">
      <path
         d="m 8,-7 -1,-2 -2,-2 -2,-1 -4,0 -2,1 -2,2 -1,2 -1,3 0,5 1,3 1,2 2,2 2,1 L 3,9 5,8 7,6 8,4"
         transform="translate(10,0)"
         id="path4977"
         style="fill:none;stroke:#000000" />
      <path
         d="m -1,-5 -2,1 -2,2 -1,3 0,2 1,3 2,2 2,1 L 2,9 4,8 6,6 7,3 7,1 6,-2 4,-4 2,-5 -1,-5"
         transform="translate(30,0)"
         id="path4979"
         style="fill:none;stroke:#000000" />
      <path
         d="m -5,-5 0,14 m 0,-10 3,-3 2,-1 3,0 2,1 1,3 0,10"
         transform="translate(49,0)"
         id="path4981"
         style="fill:none;stroke:#000000" />
      <path
         d="M 0,-12 0,5 1,8 3,9 5,9 m -8,-14 7,0"
         transform="translate(64,0)"
         id="path4983"
         style="fill:none;stroke:#000000" />
      <path
         d="M -6,1 6,1 6,-1 5,-3 4,-4 2,-5 l -3,0 -2,1 -2,2 -1,3 0,2 1,3 2,2 2,1 3,0 2,-1 2,-2"
         transform="translate(80,0)"
         id="path4985"
         style="fill:none;stroke:#000000" />
      <path
         d="m -5,-5 0,14 m 0,-10 3,-3 2,-1 3,0 2,1 1,3 0,10"
         transform="translate(98,0)"
         id="path4987"
         style="fill:none;stroke:#000000" />
      <path
         d="M 0,-12 0,5 1,8 3,9 5,9 m -8,-14 7,0"
         transform="translate(113,0)"
         id="path4989"
         style="fill:none;stroke:#000000" />
      <path
         d="m 6,-2 -1,-2 -3,-1 -3,0 -3,1 -1,2 1,2 2,1 L 3,2 5,3 6,5 6,6 5,8 2,9 -1,9 -4,8 -5,6"
         transform="translate(128,0)"
         id="path4991"
         style="fill:none;stroke:#000000" />
      <path
         d="m 0,-3 -1,1 1,1 1,-1 -1,-1 M 0,4 -1,5 0,6 1,5 0,4"
         transform="translate(141,0)"
         id="path4993"
         style="fill:none;stroke:#000000" />
    </g>
  </g>
</svg>
